<?xml version="1.0" encoding="UTF-8" standalone="no"?>
<svg
   xmlns:dc="http://purl.org/dc/elements/1.1/"
   xmlns:cc="http://creativecommons.org/ns#"
   xmlns:rdf="http://www.w3.org/1999/02/22-rdf-syntax-ns#"
   xmlns:svg="http://www.w3.org/2000/svg"
   xmlns="http://www.w3.org/2000/svg"
   xmlns:sodipodi="http://sodipodi.sourceforge.net/DTD/sodipodi-0.dtd"
   xmlns:inkscape="http://www.inkscape.org/namespaces/inkscape"
   sodipodi:docname="dead_parrot.svg"
   inkscape:version="1.0 (4035a4fb49, 2020-05-01)"
   id="svg8"
   version="1.1"
   viewBox="0 0 210 210"
   height="210mm"
   width="210mm">
  <defs
     id="defs2" />
  <sodipodi:namedview
     inkscape:window-maximized="0"
     inkscape:window-y="0"
     inkscape:window-x="52"
     inkscape:window-height="728"
     inkscape:window-width="1274"
     showgrid="false"
     inkscape:document-rotation="0"
     inkscape:current-layer="layer1"
     inkscape:document-units="mm"
     inkscape:cy="621.63572"
     inkscape:cx="57.682632"
     inkscape:zoom="0.24748737"
     inkscape:pageshadow="2"
     inkscape:pageopacity="0.0"
     borderopacity="1.0"
     bordercolor="#666666"
     pagecolor="#ffffff"
     id="base" />
  <metadata
     id="metadata5">
    <rdf:RDF>
      <cc:Work
         rdf:about="">
        <dc:format>image/svg+xml</dc:format>
        <dc:type
           rdf:resource="http://purl.org/dc/dcmitype/StillImage" />
        <dc:title></dc:title>
      </cc:Work>
    </rdf:RDF>
  </metadata>
  <g
     id="layer1"
     inkscape:groupmode="layer"
     inkscape:label="Layer 1">
    <g
       transform="matrix(34.228141,0,0,34.228141,-246.44337,-177.5286)"
       id="g57">
      <path
         id="path2"
         d="m 8.4317338,5.1873692 c 0.0979,0.22093 0.16404,0.45826 0.19394,0.70777 -0.1524,-0.25453 -0.3942299,-0.4498 -0.6820999,-0.54187 0.14129,0.23812 0.24395,0.50191 0.29898,0.78264 -0.23918,0.22489 -0.38894,0.54504 -0.38894,0.89958 0,0.68051 0.5519299,1.23243 1.2329599,1.23243 0.0963,0 0.18997,-0.0111 0.28046,-0.0317 -0.0516,1.02473 -0.54239,1.9325198 -1.2879899,2.5405298 0.18256,0.10583 0.3942299,0.16669 0.6196499,0.16669 0.42757,0 0.80513,-0.21776 1.02606,-0.54822 -0.007,0.20214 -0.0619,0.39211 -0.15425,0.55827 h 0.0159 c 0.5971712,0 1.0953812,-0.42466 1.2086212,-0.9887498 0.028,0.1037198 0.0429,0.2124598 0.0429,0.3246498 0,0.0794 -0.007,0.15689 -0.0217,0.23203 0.48948,-0.15689 0.84614,-0.6119798 0.85567,-1.1514598 0.33073,0.42201 0.52784,0.9535598 0.52784,1.5308798 0,0.0995 -0.006,0.19764 -0.0172,0.29421 0.35005,-0.54557 0.55378,-1.19327 0.55378,-1.8891198 0,-2.26748 -1.87802,-3.50705 -3.5067912,-3.50705 -0.0529,0 -0.10636,0.001 -0.15928,0.004 -0.1741,-0.24077 -0.39079,-0.44979 -0.63765,-0.61463 z"
         style="fill:#00aad4;stroke-width:0.264583" />
      <g
         id="g51"
         transform="matrix(0.45019691,0.45019691,-0.45019691,0.45019691,8.1557691,-0.15836871)">
        <path
           id="path32"
           d="m 8.6486328,6.5760934 v 1.1581791 h 0.136886 V 6.5760934 Z"
           style="fill:none;stroke:#000000;stroke-width:0.212116px;stroke-linecap:butt;stroke-linejoin:miter;stroke-opacity:1" />
        <path
           style="fill:none;stroke:#000000;stroke-width:0.212116px;stroke-linecap:butt;stroke-linejoin:miter;stroke-opacity:1"
           d="M 8.1261747,7.1791201 H 9.2843538 V 7.0422341 H 8.1261747 Z"
           id="path32-6" />
      </g>
    </g>
  </g>
</svg>
